<svg width="105" height="115" viewBox="0 0 105 115" fill="none" xmlns="http://www.w3.org/2000/svg">
<g clip-path="url(#clip0_13_4208)">
<path d="M44.1507 16.2668L45.0371 19.575C44.5942 19.6691 44.1543 19.7746 43.7175 19.8917C25.7521 24.7055 15.0771 43.1646 19.8909 61.13C20.0079 61.5665 20.1363 61.9999 20.2763 62.4303L16.9659 63.3173C19.0048 69.9609 22.7765 75.6232 27.6406 79.9831C28.3647 79.0997 29.0951 78.2391 29.8223 77.3671C34.5668 81.6484 40.4626 84.5254 46.8133 85.6061C46.5692 86.718 46.3366 87.8268 46.0924 88.9387C51.2365 89.838 56.6486 89.6683 62.0279 88.2269C70.8669 85.8585 78.097 80.4739 82.9248 73.4801L79.9667 71.7735C85.5072 63.8992 87.655 53.7083 84.9681 43.6803C84.8142 43.106 84.6518 42.5462 84.4665 41.9926L87.7769 41.1056C86.638 37.5449 84.9928 34.2554 82.9493 31.3187C81.9957 31.9436 81.0566 32.5769 80.1206 33.2217C75.3413 26.3274 68.1458 21.4964 60.0642 19.6113C60.5376 18.5734 61.0079 17.5241 61.4813 16.4862C55.9534 15.0741 50.0451 14.909 44.1507 16.2668ZM82.9826 44.2246C87.4948 61.0643 77.4626 78.4279 60.612 82.9429C43.7615 87.458 26.3916 77.4369 21.8794 60.5972C17.3672 43.7575 27.3995 26.394 44.25 21.8789C61.1005 17.3638 78.4705 27.3849 82.9826 44.2246Z" fill="#FFBF47"/>
</g>
<path d="M35.3184 100.838L32.209 111.205H30.7402L34.4043 99.8302H35.3262L35.3184 100.838ZM37.834 111.205L34.7246 100.838L34.709 99.8302H35.6387L39.3027 111.205H37.834ZM37.834 106.994V108.229H32.3496V106.994H37.834ZM43.4434 111.205H41.5059L41.5215 109.979H43.4434C44.1257 109.979 44.6803 109.848 45.1074 109.588C45.5345 109.322 45.8496 108.932 46.0527 108.416C46.2559 107.895 46.3574 107.252 46.3574 106.486V104.541C46.3574 103.937 46.3001 103.416 46.1855 102.979C46.071 102.541 45.8991 102.182 45.6699 101.901C45.4408 101.619 45.1517 101.411 44.8027 101.276C44.4538 101.135 44.0449 101.065 43.5762 101.065H41.4668V99.8302H43.5762C44.2168 99.8302 44.7949 99.9318 45.3105 100.135C45.8262 100.333 46.2689 100.632 46.6387 101.033C47.0085 101.429 47.2897 101.921 47.4824 102.51C47.6803 103.098 47.7793 103.781 47.7793 104.557V106.486C47.7793 107.262 47.6803 107.945 47.4824 108.533C47.2897 109.122 47.0059 109.614 46.6309 110.01C46.2559 110.406 45.8001 110.705 45.2637 110.908C44.7324 111.106 44.1257 111.205 43.4434 111.205ZM42.3027 99.8302V111.205H40.8652V99.8302H42.3027ZM50.459 99.8302H51.8496L54.8262 109.104L57.7949 99.8302H59.1855L55.3652 111.205H54.2715L50.459 99.8302ZM50.0059 99.8302H51.2246L51.4355 106.768V111.205H50.0059V99.8302ZM58.4121 99.8302H59.6309V111.205H58.2012V106.768L58.4121 99.8302ZM63.5996 99.8302V111.205H62.1621V99.8302H63.5996ZM73.5371 99.8302V111.205H72.0918L67.5371 102.432V111.205H66.0996V99.8302H67.5371L72.1152 108.627V99.8302H73.5371Z" fill="#FFBF47"/>
<path d="M52.3131 51.0689C56.1791 51.0689 59.3123 47.9356 59.3123 44.0696C59.3123 40.2037 56.1791 37.0704 52.3131 37.0704C48.4471 37.0704 45.3139 40.2037 45.3139 44.0696C45.3139 47.9356 48.4471 51.0689 52.3131 51.0689ZM57.5516 52.8515L54.9378 63.3175L53.188 55.8808L54.9378 52.8187H49.6884L51.4382 55.8808L49.6884 63.3175L47.0746 52.8515C43.1758 53.0374 40.0645 56.2253 40.0645 60.1679V62.4426C40.0645 63.8917 41.2401 65.0673 42.6892 65.0673H61.937C63.3861 65.0673 64.5618 63.8917 64.5618 62.4426V60.1679C64.5618 56.2253 61.4504 53.0374 57.5516 52.8515Z" fill="#FFBF47"/>
<defs>
<clipPath id="clip0_13_4208">
<rect width="74.1469" height="74.1469" fill="white" transform="translate(26.2148 97.8352) rotate(-105)"/>
</clipPath>
</defs>
</svg>
