<svg width="107" height="115" viewBox="0 0 107 115" fill="none" xmlns="http://www.w3.org/2000/svg">
<path opacity="0.3" d="M34.3242 103.746V105.722C34.3242 106.524 34.2357 107.23 34.0586 107.839C33.8867 108.443 33.6341 108.949 33.3008 109.355C32.9674 109.761 32.5664 110.066 32.0977 110.269C31.6289 110.472 31.1003 110.574 30.5117 110.574C29.944 110.574 29.4258 110.472 28.957 110.269C28.4883 110.066 28.0846 109.761 27.7461 109.355C27.4076 108.949 27.1445 108.443 26.957 107.839C26.7747 107.23 26.6836 106.524 26.6836 105.722V103.746C26.6836 102.943 26.7747 102.24 26.957 101.636C27.1393 101.027 27.3997 100.519 27.7383 100.113C28.0768 99.7065 28.4805 99.4018 28.9492 99.1987C29.418 98.9903 29.9362 98.8862 30.5039 98.8862C31.0924 98.8862 31.6211 98.9903 32.0898 99.1987C32.5638 99.4018 32.9648 99.7065 33.293 100.113C33.6263 100.519 33.8815 101.027 34.0586 101.636C34.2357 102.24 34.3242 102.943 34.3242 103.746ZM32.9023 105.722V103.73C32.9023 103.105 32.8503 102.568 32.7461 102.121C32.6419 101.667 32.4883 101.298 32.2852 101.011C32.082 100.725 31.832 100.514 31.5352 100.378C31.2383 100.238 30.8945 100.167 30.5039 100.167C30.1341 100.167 29.8008 100.238 29.5039 100.378C29.2122 100.514 28.9622 100.725 28.7539 101.011C28.5456 101.298 28.3841 101.667 28.2695 102.121C28.1602 102.568 28.1055 103.105 28.1055 103.73V105.722C28.1055 106.352 28.1602 106.894 28.2695 107.347C28.3841 107.795 28.5456 108.165 28.7539 108.456C28.9674 108.743 29.2227 108.956 29.5195 109.097C29.8164 109.233 30.1471 109.3 30.5117 109.3C30.9023 109.3 31.2461 109.233 31.543 109.097C31.8451 108.956 32.0951 108.743 32.293 108.456C32.4961 108.165 32.6471 107.795 32.7461 107.347C32.8503 106.894 32.9023 106.352 32.9023 105.722ZM37.9883 99.0424V110.417H36.5508V99.0424H37.9883ZM41.8242 104.16V105.394H37.7148V104.16H41.8242ZM42.4727 99.0424V100.277H37.7148V99.0424H42.4727ZM45.6914 99.0424V110.417H44.2539V99.0424H45.6914ZM49.5273 104.16V105.394H45.418V104.16H49.5273ZM50.1758 99.0424V100.277H45.418V99.0424H50.1758ZM53.457 99.0424V110.417H52.0195V99.0424H53.457ZM61.6523 106.8H63.0898C63.0534 107.581 62.8945 108.256 62.6133 108.824C62.3372 109.386 61.9336 109.818 61.4023 110.121C60.8763 110.423 60.2174 110.574 59.4258 110.574C58.8581 110.574 58.3451 110.462 57.8867 110.238C57.4284 110.014 57.0352 109.693 56.707 109.277C56.3841 108.855 56.1367 108.35 55.9648 107.761C55.793 107.173 55.707 106.511 55.707 105.777V103.675C55.707 102.946 55.793 102.287 55.9648 101.699C56.1419 101.11 56.3945 100.608 56.7227 100.191C57.056 99.769 57.4596 99.4461 57.9336 99.2221C58.4128 98.9981 58.9544 98.8862 59.5586 98.8862C60.2982 98.8862 60.9232 99.0346 61.4336 99.3315C61.9492 99.6231 62.3451 100.053 62.6211 100.621C62.9023 101.183 63.0586 101.873 63.0898 102.691H61.6523C61.6159 102.092 61.5221 101.605 61.3711 101.23C61.2201 100.85 60.9961 100.571 60.6992 100.394C60.4076 100.212 60.0273 100.121 59.5586 100.121C59.1419 100.121 58.7799 100.204 58.4727 100.371C58.1706 100.537 57.9206 100.777 57.7227 101.089C57.5299 101.397 57.3841 101.769 57.2852 102.206C57.1914 102.639 57.1445 103.123 57.1445 103.66V105.777C57.1445 106.277 57.1836 106.743 57.2617 107.175C57.3451 107.608 57.4753 107.988 57.6523 108.316C57.8346 108.639 58.0716 108.891 58.3633 109.074C58.6549 109.256 59.0091 109.347 59.4258 109.347C59.9518 109.347 60.3685 109.261 60.6758 109.089C60.9831 108.917 61.2096 108.644 61.3555 108.269C61.5065 107.894 61.6055 107.404 61.6523 106.8ZM71.1523 109.191V110.417H66.2148V109.191H71.1523ZM66.4727 99.0424V110.417H65.0352V99.0424H66.4727ZM70.4883 103.933V105.16H66.2148V103.933H70.4883ZM71.0742 99.0424V100.277H66.2148V99.0424H71.0742ZM72.9961 99.0424H76.1758C76.9154 99.0424 77.5352 99.1726 78.0352 99.433C78.5404 99.6935 78.9206 100.079 79.1758 100.589C79.4362 101.095 79.5664 101.717 79.5664 102.456C79.5664 102.977 79.4805 103.454 79.3086 103.886C79.1367 104.313 78.8867 104.678 78.5586 104.98C78.2305 105.277 77.832 105.498 77.3633 105.644L76.9727 105.808H74.1367L74.1211 104.581H76.1602C76.5977 104.581 76.9622 104.488 77.2539 104.3C77.5456 104.108 77.7643 103.85 77.9102 103.527C78.056 103.204 78.1289 102.847 78.1289 102.456C78.1289 102.019 78.0638 101.636 77.9336 101.308C77.8034 100.98 77.5951 100.727 77.3086 100.55C77.0273 100.368 76.6497 100.277 76.1758 100.277H74.4336V110.417H72.9961V99.0424ZM78.457 110.417L76.1914 105.261L77.6836 105.253L79.9961 110.324V110.417H78.457Z" fill="white"/>
<g opacity="0.3">
<path d="M69.5513 51.3654L64.1804 49.2674C63.9892 49.1928 63.5929 49.0949 63.1454 49.2674L57.7744 51.3654C57.2756 51.5612 56.9492 52.0181 56.9492 52.5263C56.9492 57.7294 60.1522 61.3286 63.1454 62.4989C63.5929 62.6714 63.9846 62.5735 64.1804 62.4989C66.5721 61.5664 70.3765 58.3308 70.3765 52.5263C70.3765 52.0181 70.0502 51.5612 69.5513 51.3654ZM63.6629 60.2843V51.468L68.1153 53.207C67.8542 57.2678 65.276 59.5197 63.6629 60.2843ZM50.9815 50.6614C54.2778 50.6614 56.9492 47.9899 56.9492 44.6937C56.9492 41.3975 54.2778 38.726 50.9815 38.726C47.6853 38.726 45.0139 41.3975 45.0139 44.6937C45.0139 47.9899 47.6853 50.6614 50.9815 50.6614ZM55.4573 52.5263C55.4573 52.4097 55.4946 52.3025 55.5086 52.1906C55.392 52.1859 55.2801 52.1533 55.1589 52.1533H54.3803C53.3453 52.6289 52.1937 52.8993 50.9815 52.8993C49.7694 52.8993 48.6224 52.6289 47.5828 52.1533H46.8042C43.3448 52.1533 40.5381 54.96 40.5381 58.4194V60.3589C40.5381 61.5944 41.5405 62.5968 42.776 62.5968H59.1871C59.5041 62.5968 59.8072 62.5268 60.0823 62.4103C57.5646 60.4102 55.4573 56.9694 55.4573 52.5263Z" fill="white"/>
</g>
<g opacity="0.3" clip-path="url(#clip0_13_4210)">
<path d="M22.0772 31.9266L25.0432 33.6391C24.7965 34.0188 24.5602 34.4044 24.3341 34.796C15.0345 50.9034 20.5387 71.5043 36.646 80.8039C37.0374 81.0298 37.4347 81.2455 37.8379 81.4508L36.1244 84.4188C42.2638 87.6748 48.9346 89.0117 55.457 88.6552C55.3444 87.5184 55.2523 86.3935 55.15 85.2627C61.5321 84.9352 67.7354 82.8006 72.9902 79.0741C73.6039 80.0329 74.2234 80.9815 74.837 81.9403C79.1103 78.9388 82.8172 74.9919 85.6017 70.1689C90.1771 62.2441 91.4822 53.3241 89.9505 44.965L86.652 45.8499C85.0018 36.3643 79.3146 27.6395 70.3237 22.4486C69.8088 22.1513 69.2982 21.8703 68.7757 21.6098L70.4892 18.6419C67.1662 16.9294 63.6767 15.7667 60.1553 15.1351C59.9228 16.2513 59.7066 17.3631 59.5007 18.4809C51.2462 16.9854 42.7422 18.6573 35.6947 23.0389C35.2955 21.9703 34.8861 20.8957 34.4869 19.8271C29.5796 22.7374 25.2851 26.7985 22.0772 31.9266ZM69.3047 24.2374C84.4028 32.9543 89.5867 52.326 80.8643 67.4338C72.1418 82.5415 52.7734 87.7379 37.6753 79.0211C22.5773 70.3042 17.3933 50.9325 26.1158 35.8247C34.8382 20.7169 54.2066 15.5205 69.3047 24.2374Z" fill="white"/>
</g>
<defs>
<clipPath id="clip0_13_4210">
<rect width="74.1469" height="74.1469" fill="white" transform="translate(67.0723 102.287) rotate(-150)"/>
</clipPath>
</defs>
</svg>
