<svg width="60" height="45" viewBox="0 0 60 45" fill="none" xmlns="http://www.w3.org/2000/svg">
<path d="M30.0077 3C24.4848 3 20.0077 7.51535 20.0077 13.0855C20.0077 14.9345 20.5025 16.6665 21.3639 18.1562C21.5587 18.4931 21.9299 18.6885 22.3167 18.6885H37.6987C38.0855 18.6885 38.4566 18.4931 38.6514 18.1562C39.5129 16.6665 40.0077 14.9345 40.0077 13.0855C40.0077 7.51535 35.5306 3 30.0077 3ZM30.0077 5.24122C30.5185 5.24122 30.9306 5.59596 31.0605 6.06942C31.0219 6.14856 30.9688 6.21755 30.9407 6.30299L30.6205 7.27197C30.4424 7.39418 30.2396 7.48243 30.008 7.48243C29.3945 7.48243 28.8969 6.98061 28.8969 6.36182C28.8969 5.74304 29.3941 5.24122 30.0077 5.24122ZM23.341 15.3267C22.7275 15.3267 22.2299 14.8249 22.2299 14.2061C22.2299 13.5873 22.7275 13.0855 23.341 13.0855C23.9546 13.0855 24.4521 13.5873 24.4521 14.2061C24.4521 14.8249 23.9546 15.3267 23.341 15.3267ZM25.0077 9.72365C24.3941 9.72365 23.8966 9.22183 23.8966 8.60304C23.8966 7.98425 24.3941 7.48243 25.0077 7.48243C25.6212 7.48243 26.1188 7.98425 26.1188 8.60304C26.1188 9.22183 25.6212 9.72365 25.0077 9.72365ZM33.5761 7.18792L31.4466 13.6314C31.9219 14.0425 32.2299 14.6452 32.2299 15.3267C32.2299 15.7371 32.1126 16.1164 31.9216 16.4473H28.0938C27.9028 16.1164 27.7855 15.7371 27.7855 15.3267C27.7855 14.1381 28.7056 13.1755 29.8653 13.0998L31.9952 6.65598C32.14 6.21614 32.6108 5.97486 33.0494 6.12475C33.4858 6.27147 33.7212 6.74773 33.5761 7.18792ZM34.0851 9.19101L34.624 7.56087C34.7445 7.5157 34.8716 7.48278 35.0077 7.48278C35.6212 7.48278 36.1188 7.9846 36.1188 8.60339C36.1188 9.22218 35.6212 9.724 35.0077 9.724C34.6126 9.72365 34.2823 9.50408 34.0851 9.19101ZM36.6744 15.3267C36.0608 15.3267 35.5632 14.8249 35.5632 14.2061C35.5632 13.5873 36.0608 13.0855 36.6744 13.0855C37.2879 13.0855 37.7855 13.5873 37.7855 14.2061C37.7855 14.8249 37.2879 15.3267 36.6744 15.3267Z" fill="white"/>
<path d="M3.3291 41.5045H1.63379L1.64746 40.4313H3.3291C3.92611 40.4313 4.41146 40.3173 4.78516 40.0895C5.15885 39.8571 5.43457 39.5153 5.6123 39.0641C5.79004 38.6084 5.87891 38.0455 5.87891 37.3756V35.6735C5.87891 35.1448 5.82878 34.6891 5.72852 34.3063C5.62826 33.9235 5.47786 33.609 5.27734 33.3629C5.07682 33.1168 4.82389 32.9345 4.51855 32.816C4.21322 32.693 3.85547 32.6315 3.44531 32.6315H1.59961V31.5514H3.44531C4.00586 31.5514 4.51172 31.6403 4.96289 31.818C5.41406 31.9912 5.80143 32.2532 6.125 32.6041C6.44857 32.9505 6.69466 33.3811 6.86328 33.8961C7.03646 34.4111 7.12305 35.0081 7.12305 35.6871V37.3756C7.12305 38.0546 7.03646 38.6517 6.86328 39.1666C6.69466 39.6816 6.44629 40.1123 6.11816 40.4586C5.79004 40.805 5.39128 41.067 4.92188 41.2448C4.45703 41.4179 3.92611 41.5045 3.3291 41.5045ZM2.33105 31.5514V41.5045H1.07324V31.5514H2.33105ZM12.5303 40.2399V36.2272C12.5303 35.9355 12.4847 35.7008 12.3936 35.5231C12.307 35.3453 12.1748 35.2155 11.9971 35.1334C11.8239 35.0514 11.6051 35.0104 11.3408 35.0104C11.0856 35.0104 10.8646 35.0628 10.6777 35.1676C10.4954 35.2724 10.3542 35.4114 10.2539 35.5846C10.1582 35.7578 10.1104 35.9492 10.1104 36.1588H8.90039C8.90039 35.8945 8.95736 35.6324 9.07129 35.3727C9.18978 35.1129 9.3584 34.8782 9.57715 34.6686C9.7959 34.4544 10.0579 34.2858 10.3633 34.1627C10.6732 34.0351 11.0195 33.9713 11.4023 33.9713C11.8581 33.9713 12.2614 34.0465 12.6123 34.1969C12.9632 34.3427 13.2389 34.582 13.4395 34.9147C13.64 35.2474 13.7402 35.6894 13.7402 36.2408V39.8912C13.7402 40.1373 13.7585 40.3994 13.7949 40.6774C13.8359 40.9554 13.8929 41.1946 13.9658 41.3951V41.5045H12.7148C12.6556 41.3587 12.61 41.165 12.5781 40.9235C12.5462 40.6774 12.5303 40.4495 12.5303 40.2399ZM12.7217 37.0201L12.7354 37.9088H11.8945C11.6074 37.9088 11.3454 37.9407 11.1084 38.0045C10.876 38.0683 10.6755 38.1617 10.5068 38.2848C10.3382 38.4033 10.2083 38.5514 10.1172 38.7291C10.0306 38.9069 9.9873 39.1097 9.9873 39.3375C9.9873 39.6337 10.0283 39.8707 10.1104 40.0485C10.1924 40.2216 10.3154 40.347 10.4795 40.4244C10.6436 40.5019 10.8509 40.5406 11.1016 40.5406C11.4069 40.5406 11.6758 40.47 11.9082 40.3287C12.1406 40.1875 12.3206 40.0166 12.4482 39.816C12.5804 39.6155 12.6419 39.4287 12.6328 39.2555L12.8994 39.8229C12.8812 40.0006 12.8219 40.1943 12.7217 40.4039C12.626 40.609 12.4915 40.8073 12.3184 40.9987C12.1452 41.1855 11.9401 41.3405 11.7031 41.4635C11.4707 41.582 11.2087 41.6412 10.917 41.6412C10.4886 41.6412 10.1126 41.5592 9.78906 41.3951C9.47005 41.2311 9.22168 40.9895 9.04395 40.6705C8.86621 40.3515 8.77734 39.9573 8.77734 39.4879C8.77734 39.1324 8.83887 38.8043 8.96191 38.5035C9.08496 38.2028 9.26725 37.943 9.50879 37.7242C9.75033 37.5009 10.0534 37.3278 10.418 37.2047C10.7871 37.0817 11.2132 37.0201 11.6963 37.0201H12.7217ZM19.209 39.611C19.209 39.4241 19.1634 39.2601 19.0723 39.1188C18.9811 38.9775 18.8307 38.8408 18.6211 38.7086C18.416 38.5765 18.138 38.4352 17.7871 38.2848C17.4453 38.1435 17.1377 38.0045 16.8643 37.8678C16.5954 37.7265 16.3675 37.5739 16.1807 37.4098C15.9938 37.2457 15.8503 37.0566 15.75 36.8424C15.6543 36.6237 15.6064 36.3662 15.6064 36.0699C15.6064 35.7737 15.6611 35.5003 15.7705 35.2496C15.8844 34.9944 16.0439 34.7711 16.249 34.5797C16.4541 34.3883 16.7002 34.2402 16.9873 34.1354C17.2744 34.026 17.5957 33.9713 17.9512 33.9713C18.457 33.9713 18.8877 34.0693 19.2432 34.2653C19.5986 34.4612 19.8698 34.7301 20.0566 35.0719C20.248 35.4091 20.3438 35.7897 20.3438 36.2135H19.1406C19.1406 36.0084 19.0951 35.8147 19.0039 35.6324C18.9128 35.4502 18.7783 35.302 18.6006 35.1881C18.4229 35.0696 18.2064 35.0104 17.9512 35.0104C17.6823 35.0104 17.4635 35.0582 17.2949 35.1539C17.1263 35.2496 17.0033 35.375 16.9258 35.5299C16.8529 35.6803 16.8164 35.8466 16.8164 36.0289C16.8164 36.1656 16.8346 36.2841 16.8711 36.3844C16.9121 36.4801 16.9805 36.5712 17.0762 36.6578C17.1719 36.7399 17.3018 36.8265 17.4658 36.9176C17.6344 37.0042 17.8486 37.1045 18.1084 37.2184C18.6097 37.4143 19.0312 37.6126 19.373 37.8131C19.7148 38.0136 19.9746 38.2483 20.1523 38.5172C20.3301 38.7861 20.4189 39.1188 20.4189 39.5153C20.4189 39.8388 20.3597 40.1328 20.2412 40.3971C20.1273 40.6569 19.9632 40.8802 19.749 41.067C19.5348 41.2539 19.2773 41.3974 18.9766 41.4977C18.6803 41.5934 18.3477 41.6412 17.9785 41.6412C17.4225 41.6412 16.9508 41.5319 16.5635 41.3131C16.1807 41.0898 15.889 40.8004 15.6885 40.4449C15.4925 40.0849 15.3945 39.6998 15.3945 39.2897H16.6045C16.6182 39.636 16.6956 39.9049 16.8369 40.0963C16.9827 40.2877 17.1582 40.4199 17.3633 40.4928C17.5684 40.5657 17.7734 40.6022 17.9785 40.6022C18.2474 40.6022 18.473 40.5634 18.6553 40.486C18.8376 40.4039 18.9743 40.2877 19.0654 40.1373C19.1611 39.9869 19.209 39.8115 19.209 39.611ZM23.2148 31.0045V41.5045H22.0049V31.0045H23.2148ZM22.9209 37.526L22.4287 37.5055C22.4242 36.9996 22.4811 36.5325 22.5996 36.1041C22.7227 35.6712 22.8958 35.2952 23.1191 34.9762C23.347 34.6572 23.6182 34.4111 23.9326 34.2379C24.2471 34.0602 24.5957 33.9713 24.9785 33.9713C25.2793 33.9713 25.5527 34.0214 25.7988 34.1217C26.0449 34.2174 26.2546 34.3724 26.4277 34.5865C26.6009 34.8007 26.7331 35.0787 26.8242 35.4205C26.9199 35.7578 26.9678 36.1702 26.9678 36.6578V41.5045H25.7578V36.6442C25.7578 36.2568 25.7145 35.9469 25.6279 35.7145C25.5459 35.4775 25.4183 35.3066 25.2451 35.2018C25.0765 35.0924 24.8623 35.0377 24.6025 35.0377C24.3656 35.0377 24.1445 35.1038 23.9395 35.236C23.7344 35.3681 23.5544 35.5504 23.3994 35.7828C23.249 36.0153 23.1305 36.2819 23.0439 36.5826C22.9619 36.8789 22.9209 37.1933 22.9209 37.526ZM28.7725 31.0045H29.9824V40.069L29.8799 41.5045H28.7725V31.0045ZM34.1318 37.4713V38.1617C34.1318 38.7451 34.0771 39.2555 33.9678 39.693C33.863 40.1259 33.7057 40.4882 33.4961 40.7799C33.2865 41.067 33.0312 41.2835 32.7305 41.4293C32.4297 41.5706 32.0856 41.6412 31.6982 41.6412C31.3154 41.6412 30.985 41.5638 30.707 41.4088C30.429 41.2539 30.1966 41.0306 30.0098 40.7389C29.8229 40.4472 29.6748 40.094 29.5654 39.6793C29.4606 39.2646 29.3877 38.7975 29.3467 38.278V37.3551C29.3877 36.831 29.4606 36.3616 29.5654 35.9469C29.6702 35.5276 29.8161 35.1722 30.0029 34.8805C30.1898 34.5843 30.4222 34.3587 30.7002 34.2037C30.9782 34.0488 31.3086 33.9713 31.6914 33.9713C32.0833 33.9713 32.4297 34.0397 32.7305 34.1764C33.0358 34.3131 33.291 34.525 33.4961 34.8121C33.7057 35.0947 33.863 35.457 33.9678 35.899C34.0771 36.3365 34.1318 36.8606 34.1318 37.4713ZM32.9219 38.1617V37.4713C32.9219 37.0612 32.8945 36.7034 32.8398 36.3981C32.7897 36.0927 32.7054 35.8398 32.5869 35.6393C32.4684 35.4388 32.3089 35.2884 32.1084 35.1881C31.9124 35.0878 31.6686 35.0377 31.377 35.0377C31.1309 35.0377 30.9144 35.0878 30.7275 35.1881C30.5452 35.2884 30.388 35.4251 30.2559 35.5983C30.1237 35.7669 30.0143 35.9606 29.9277 36.1793C29.8411 36.3935 29.7773 36.6168 29.7363 36.8492V38.7906C29.7956 39.0869 29.889 39.3717 30.0166 39.6451C30.1488 39.914 30.3265 40.1351 30.5498 40.3082C30.7731 40.4814 31.0511 40.568 31.3838 40.568C31.6618 40.568 31.8965 40.5201 32.0879 40.4244C32.2839 40.3287 32.4434 40.1829 32.5664 39.9869C32.6895 39.7864 32.7783 39.5358 32.833 39.235C32.8923 38.9296 32.9219 38.5719 32.9219 38.1617ZM35.4238 38.1617V37.4576C35.4238 36.8834 35.4967 36.3798 35.6426 35.9469C35.7884 35.5094 35.9912 35.1448 36.251 34.8531C36.5107 34.5615 36.8138 34.3427 37.1602 34.1969C37.5065 34.0465 37.8779 33.9713 38.2744 33.9713C38.68 33.9713 39.056 34.0465 39.4023 34.1969C39.7487 34.3427 40.0518 34.5615 40.3115 34.8531C40.5758 35.1448 40.7809 35.5094 40.9268 35.9469C41.0726 36.3798 41.1455 36.8834 41.1455 37.4576V38.1617C41.1455 38.736 41.0726 39.2418 40.9268 39.6793C40.7809 40.1123 40.5781 40.4746 40.3184 40.7662C40.0586 41.0579 39.7555 41.2767 39.4092 41.4225C39.0628 41.5683 38.6891 41.6412 38.2881 41.6412C37.887 41.6412 37.5133 41.5683 37.167 41.4225C36.8206 41.2767 36.5153 41.0579 36.251 40.7662C35.9912 40.4746 35.7884 40.1123 35.6426 39.6793C35.4967 39.2418 35.4238 38.736 35.4238 38.1617ZM36.6338 37.4576V38.1617C36.6338 38.5673 36.6748 38.9228 36.7568 39.2281C36.8389 39.5335 36.9551 39.7887 37.1055 39.9938C37.2559 40.1989 37.4313 40.3538 37.6318 40.4586C37.8324 40.5589 38.0511 40.609 38.2881 40.609C38.5615 40.609 38.8008 40.5589 39.0059 40.4586C39.2155 40.3538 39.3887 40.1989 39.5254 39.9938C39.6621 39.7887 39.7646 39.5335 39.833 39.2281C39.9014 38.9228 39.9355 38.5673 39.9355 38.1617V37.4576C39.9355 37.052 39.8945 36.6989 39.8125 36.3981C39.7305 36.0927 39.6143 35.8375 39.4639 35.6324C39.3135 35.4228 39.1357 35.2679 38.9307 35.1676C38.7301 35.0628 38.5114 35.0104 38.2744 35.0104C38.042 35.0104 37.8255 35.0628 37.625 35.1676C37.4245 35.2679 37.249 35.4228 37.0986 35.6324C36.9528 35.8375 36.8389 36.0927 36.7568 36.3981C36.6748 36.6989 36.6338 37.052 36.6338 37.4576ZM46.3271 40.2399V36.2272C46.3271 35.9355 46.2816 35.7008 46.1904 35.5231C46.1038 35.3453 45.9717 35.2155 45.7939 35.1334C45.6208 35.0514 45.402 35.0104 45.1377 35.0104C44.8825 35.0104 44.6615 35.0628 44.4746 35.1676C44.2923 35.2724 44.151 35.4114 44.0508 35.5846C43.9551 35.7578 43.9072 35.9492 43.9072 36.1588H42.6973C42.6973 35.8945 42.7542 35.6324 42.8682 35.3727C42.9867 35.1129 43.1553 34.8782 43.374 34.6686C43.5928 34.4544 43.8548 34.2858 44.1602 34.1627C44.4701 34.0351 44.8164 33.9713 45.1992 33.9713C45.6549 33.9713 46.0583 34.0465 46.4092 34.1969C46.7601 34.3427 47.0358 34.582 47.2363 34.9147C47.4368 35.2474 47.5371 35.6894 47.5371 36.2408V39.8912C47.5371 40.1373 47.5553 40.3994 47.5918 40.6774C47.6328 40.9554 47.6898 41.1946 47.7627 41.3951V41.5045H46.5117C46.4525 41.3587 46.4069 41.165 46.375 40.9235C46.3431 40.6774 46.3271 40.4495 46.3271 40.2399ZM46.5186 37.0201L46.5322 37.9088H45.6914C45.4043 37.9088 45.1423 37.9407 44.9053 38.0045C44.6729 38.0683 44.4723 38.1617 44.3037 38.2848C44.1351 38.4033 44.0052 38.5514 43.9141 38.7291C43.8275 38.9069 43.7842 39.1097 43.7842 39.3375C43.7842 39.6337 43.8252 39.8707 43.9072 40.0485C43.9893 40.2216 44.1123 40.347 44.2764 40.4244C44.4404 40.5019 44.6478 40.5406 44.8984 40.5406C45.2038 40.5406 45.4727 40.47 45.7051 40.3287C45.9375 40.1875 46.1175 40.0166 46.2451 39.816C46.3773 39.6155 46.4388 39.4287 46.4297 39.2555L46.6963 39.8229C46.6781 40.0006 46.6188 40.1943 46.5186 40.4039C46.4229 40.609 46.2884 40.8073 46.1152 40.9987C45.9421 41.1855 45.737 41.3405 45.5 41.4635C45.2676 41.582 45.0055 41.6412 44.7139 41.6412C44.2855 41.6412 43.9095 41.5592 43.5859 41.3951C43.2669 41.2311 43.0186 40.9895 42.8408 40.6705C42.6631 40.3515 42.5742 39.9573 42.5742 39.4879C42.5742 39.1324 42.6357 38.8043 42.7588 38.5035C42.8818 38.2028 43.0641 37.943 43.3057 37.7242C43.5472 37.5009 43.8503 37.3278 44.2148 37.2047C44.584 37.0817 45.0101 37.0201 45.4932 37.0201H46.5186ZM50.627 35.2701V41.5045H49.417V34.108H50.5859L50.627 35.2701ZM52.4658 34.067L52.4727 35.2428C52.3724 35.22 52.2812 35.2063 52.1992 35.2018C52.1217 35.1927 52.0306 35.1881 51.9258 35.1881C51.6979 35.1881 51.4974 35.2337 51.3242 35.3248C51.1556 35.416 51.0098 35.5436 50.8867 35.7076C50.7637 35.8717 50.6657 36.0677 50.5928 36.2955C50.5199 36.5188 50.4697 36.7649 50.4424 37.0338L50.1279 37.2389C50.1279 36.7923 50.1621 36.373 50.2305 35.9811C50.3034 35.5892 50.415 35.2428 50.5654 34.942C50.7158 34.6367 50.9072 34.3997 51.1396 34.2311C51.3766 34.0579 51.6592 33.9713 51.9873 33.9713C52.0602 33.9713 52.1491 33.9827 52.2539 34.0055C52.3633 34.0237 52.4339 34.0442 52.4658 34.067ZM57.4219 40.069V31.0045H58.625V41.5045H57.5244L57.4219 40.069ZM53.2861 38.1617V37.4713C53.2861 36.8606 53.3454 36.3365 53.4639 35.899C53.5824 35.457 53.751 35.0947 53.9697 34.8121C54.1885 34.525 54.4505 34.3131 54.7559 34.1764C55.0612 34.0397 55.3984 33.9713 55.7676 33.9713C56.1504 33.9713 56.4785 34.0488 56.752 34.2037C57.0299 34.3587 57.2624 34.5843 57.4492 34.8805C57.6361 35.1722 57.7819 35.5276 57.8867 35.9469C57.9961 36.3616 58.069 36.831 58.1055 37.3551V38.278C58.0645 38.7975 57.9893 39.2646 57.8799 39.6793C57.7751 40.094 57.6292 40.4472 57.4424 40.7389C57.2555 41.0306 57.0231 41.2539 56.7451 41.4088C56.4671 41.5638 56.1367 41.6412 55.7539 41.6412C55.3893 41.6412 55.0566 41.5706 54.7559 41.4293C54.4551 41.2835 54.193 41.067 53.9697 40.7799C53.751 40.4882 53.5824 40.1259 53.4639 39.693C53.3454 39.2555 53.2861 38.7451 53.2861 38.1617ZM54.4961 37.4713V38.1617C54.4961 38.5719 54.5257 38.9296 54.585 39.235C54.6442 39.5358 54.7376 39.7864 54.8652 39.9869C54.9928 40.1829 55.1546 40.3287 55.3506 40.4244C55.5511 40.5201 55.7904 40.568 56.0684 40.568C56.4056 40.568 56.6813 40.486 56.8955 40.3219C57.1097 40.1578 57.2806 39.9414 57.4082 39.6725C57.5404 39.399 57.6452 39.1051 57.7227 38.7906V36.8492C57.6771 36.6168 57.611 36.3935 57.5244 36.1793C57.4378 35.9606 57.3285 35.7669 57.1963 35.5983C57.0687 35.4251 56.9115 35.2884 56.7246 35.1881C56.5423 35.0878 56.3281 35.0377 56.082 35.0377C55.804 35.0377 55.5625 35.0878 55.3574 35.1881C55.1569 35.2884 54.9928 35.4388 54.8652 35.6393C54.7422 35.8398 54.6488 36.0927 54.585 36.3981C54.5257 36.7034 54.4961 37.0612 54.4961 37.4713Z" fill="white"/>
</svg>
