<svg width="54" height="53" viewBox="0 0 54 53" fill="none" xmlns="http://www.w3.org/2000/svg">
<path d="M13.2676 38.2437H16.0498C16.6969 38.2437 17.2393 38.3576 17.6768 38.5854C18.1188 38.8133 18.4515 39.1506 18.6748 39.5972C18.9027 40.0392 19.0166 40.5838 19.0166 41.231C19.0166 41.6867 18.9414 42.1037 18.791 42.4819C18.6406 42.8556 18.4219 43.1746 18.1348 43.439C17.8477 43.6987 17.499 43.8924 17.0889 44.02L16.7471 44.1636H14.2656L14.252 43.0903H16.0361C16.4189 43.0903 16.738 43.0083 16.9932 42.8442C17.2484 42.6756 17.4398 42.45 17.5674 42.1675C17.695 41.8849 17.7588 41.5728 17.7588 41.231C17.7588 40.8481 17.7018 40.5132 17.5879 40.2261C17.474 39.939 17.2917 39.7179 17.041 39.563C16.7949 39.4035 16.4645 39.3237 16.0498 39.3237H14.5254V48.1968H13.2676V38.2437ZM18.0459 48.1968L16.0635 43.6851L17.3691 43.6782L19.3926 48.1147V48.1968H18.0459ZM20.2812 44.854V44.1499C20.2812 43.5757 20.3542 43.0721 20.5 42.6392C20.6458 42.2017 20.8486 41.8371 21.1084 41.5454C21.3682 41.2537 21.6712 41.035 22.0176 40.8892C22.3639 40.7388 22.7354 40.6636 23.1318 40.6636C23.5374 40.6636 23.9134 40.7388 24.2598 40.8892C24.6061 41.035 24.9092 41.2537 25.1689 41.5454C25.4333 41.8371 25.6383 42.2017 25.7842 42.6392C25.93 43.0721 26.0029 43.5757 26.0029 44.1499V44.854C26.0029 45.4282 25.93 45.9341 25.7842 46.3716C25.6383 46.8045 25.4355 47.1668 25.1758 47.4585C24.916 47.7502 24.613 47.9689 24.2666 48.1147C23.9202 48.2606 23.5465 48.3335 23.1455 48.3335C22.7445 48.3335 22.3708 48.2606 22.0244 48.1147C21.6781 47.9689 21.3727 47.7502 21.1084 47.4585C20.8486 47.1668 20.6458 46.8045 20.5 46.3716C20.3542 45.9341 20.2812 45.4282 20.2812 44.854ZM21.4912 44.1499V44.854C21.4912 45.2596 21.5322 45.6151 21.6143 45.9204C21.6963 46.2257 21.8125 46.481 21.9629 46.686C22.1133 46.8911 22.2887 47.0461 22.4893 47.1509C22.6898 47.2511 22.9085 47.3013 23.1455 47.3013C23.4189 47.3013 23.6582 47.2511 23.8633 47.1509C24.0729 47.0461 24.2461 46.8911 24.3828 46.686C24.5195 46.481 24.6221 46.2257 24.6904 45.9204C24.7588 45.6151 24.793 45.2596 24.793 44.854V44.1499C24.793 43.7443 24.752 43.3911 24.6699 43.0903C24.5879 42.785 24.4717 42.5298 24.3213 42.3247C24.1709 42.1151 23.9932 41.9601 23.7881 41.8599C23.5876 41.755 23.3688 41.7026 23.1318 41.7026C22.8994 41.7026 22.6829 41.755 22.4824 41.8599C22.2819 41.9601 22.1064 42.1151 21.9561 42.3247C21.8102 42.5298 21.6963 42.785 21.6143 43.0903C21.5322 43.3911 21.4912 43.7443 21.4912 44.1499ZM28.8604 37.6968V48.1968H27.6572V37.6968H28.8604ZM33.4199 48.3335C32.9779 48.3335 32.5791 48.2674 32.2236 48.1353C31.8682 48.0031 31.5651 47.8026 31.3145 47.5337C31.0638 47.2603 30.8724 46.9162 30.7402 46.5015C30.6081 46.0868 30.542 45.5968 30.542 45.0317V44.1978C30.542 43.5461 30.6172 42.9946 30.7676 42.5435C30.9225 42.0923 31.1299 41.73 31.3896 41.4565C31.6494 41.1785 31.9434 40.978 32.2715 40.855C32.5996 40.7274 32.9368 40.6636 33.2832 40.6636C33.748 40.6636 34.1445 40.7388 34.4727 40.8892C34.8008 41.0396 35.0674 41.2629 35.2725 41.5591C35.4775 41.8553 35.6279 42.2199 35.7236 42.6528C35.8239 43.0858 35.874 43.5848 35.874 44.1499V44.854H31.2529V43.8218H34.6641V43.6509C34.6458 43.2681 34.5934 42.9308 34.5068 42.6392C34.4248 42.3475 34.2881 42.1196 34.0967 41.9556C33.9053 41.7869 33.6341 41.7026 33.2832 41.7026C33.0599 41.7026 32.8525 41.7414 32.6611 41.8188C32.4743 41.8918 32.3125 42.0216 32.1758 42.2085C32.0436 42.3908 31.9388 42.6437 31.8613 42.9673C31.7884 43.2909 31.752 43.701 31.752 44.1978V45.0317C31.752 45.4282 31.7884 45.77 31.8613 46.0571C31.9388 46.3397 32.0505 46.5744 32.1963 46.7612C32.3467 46.9435 32.529 47.0802 32.7432 47.1714C32.9619 47.258 33.2103 47.3013 33.4883 47.3013C33.8939 47.3013 34.2288 47.2238 34.4932 47.0688C34.7575 46.9093 34.9876 46.7065 35.1836 46.4604L35.8193 47.2192C35.6872 47.4061 35.514 47.5861 35.2998 47.7593C35.0902 47.9279 34.8304 48.0669 34.5205 48.1763C34.2152 48.2811 33.8483 48.3335 33.4199 48.3335ZM40.9258 46.3032C40.9258 46.1164 40.8802 45.9523 40.7891 45.811C40.6979 45.6698 40.5475 45.533 40.3379 45.4009C40.1328 45.2687 39.8548 45.1274 39.5039 44.9771C39.1621 44.8358 38.8545 44.6968 38.5811 44.5601C38.3122 44.4188 38.0843 44.2661 37.8975 44.1021C37.7106 43.938 37.5671 43.7489 37.4668 43.5347C37.3711 43.3159 37.3232 43.0584 37.3232 42.7622C37.3232 42.466 37.3779 42.1925 37.4873 41.9419C37.6012 41.6867 37.7607 41.4634 37.9658 41.272C38.1709 41.0806 38.417 40.9325 38.7041 40.8276C38.9912 40.7183 39.3125 40.6636 39.668 40.6636C40.1738 40.6636 40.6045 40.7616 40.96 40.9575C41.3154 41.1535 41.5866 41.4224 41.7734 41.7642C41.9648 42.1014 42.0605 42.4819 42.0605 42.9058H40.8574C40.8574 42.7007 40.8118 42.507 40.7207 42.3247C40.6296 42.1424 40.4951 41.9943 40.3174 41.8804C40.1396 41.7619 39.9232 41.7026 39.668 41.7026C39.3991 41.7026 39.1803 41.7505 39.0117 41.8462C38.8431 41.9419 38.7201 42.0672 38.6426 42.2222C38.5697 42.3726 38.5332 42.5389 38.5332 42.7212C38.5332 42.8579 38.5514 42.9764 38.5879 43.0767C38.6289 43.1724 38.6973 43.2635 38.793 43.3501C38.8887 43.4321 39.0186 43.5187 39.1826 43.6099C39.3512 43.6965 39.5654 43.7967 39.8252 43.9106C40.3265 44.1066 40.748 44.3049 41.0898 44.5054C41.4316 44.7059 41.6914 44.9406 41.8691 45.2095C42.0469 45.4784 42.1357 45.811 42.1357 46.2075C42.1357 46.5311 42.0765 46.825 41.958 47.0894C41.8441 47.3491 41.68 47.5724 41.4658 47.7593C41.2516 47.9461 40.9941 48.0897 40.6934 48.1899C40.3971 48.2856 40.0645 48.3335 39.6953 48.3335C39.1393 48.3335 38.6676 48.2241 38.2803 48.0054C37.8975 47.7821 37.6058 47.4927 37.4053 47.1372C37.2093 46.7772 37.1113 46.3921 37.1113 45.9819H38.3213C38.335 46.3283 38.4124 46.5972 38.5537 46.7886C38.6995 46.98 38.875 47.1121 39.0801 47.1851C39.2852 47.258 39.4902 47.2944 39.6953 47.2944C39.9642 47.2944 40.1898 47.2557 40.3721 47.1782C40.5544 47.0962 40.6911 46.98 40.7822 46.8296C40.8779 46.6792 40.9258 46.5037 40.9258 46.3032Z" fill="white"/>
<path d="M29.975 21.3763C29.975 21.7071 29.7071 21.975 29.3762 21.975H25.7838C25.4529 21.975 25.185 21.7071 25.185 21.3763V19.58H18V24.9688C18 25.9268 18.8383 26.765 19.7962 26.765H35.3638C36.3218 26.765 37.16 25.9268 37.16 24.9688V19.58H29.975V21.3763ZM35.3638 13.5925H32.37V11.7963C32.37 10.8383 31.5318 10 30.5738 10H24.5863C23.6283 10 22.79 10.8383 22.79 11.7963V13.5925H19.7962C18.8383 13.5925 18 14.4308 18 15.3888V18.3825H37.16V15.3888C37.16 14.4308 36.3218 13.5925 35.3638 13.5925ZM29.975 13.5925H25.185V12.395H29.975V13.5925Z" fill="white"/>
</svg>
