<svg width="46" height="45" viewBox="0 0 46 45" fill="none" xmlns="http://www.w3.org/2000/svg">
<path d="M5.73242 38.9889C5.73242 38.7565 5.70508 38.5514 5.65039 38.3737C5.5957 38.1914 5.5 38.0273 5.36328 37.8815C5.22656 37.7356 5.03516 37.5966 4.78906 37.4645C4.54297 37.3323 4.23079 37.1979 3.85254 37.0612C3.44238 36.9153 3.07096 36.7535 2.73828 36.5758C2.4056 36.3935 2.12077 36.1862 1.88379 35.9537C1.65137 35.7213 1.47135 35.4547 1.34375 35.1539C1.21615 34.8531 1.15234 34.5091 1.15234 34.1217C1.15234 33.7343 1.21842 33.3766 1.35059 33.0485C1.4873 32.7203 1.67871 32.4355 1.9248 32.194C2.17546 31.9479 2.47624 31.7565 2.82715 31.6198C3.17806 31.483 3.56999 31.4147 4.00293 31.4147C4.65007 31.4147 5.19466 31.5582 5.63672 31.8453C6.08333 32.1279 6.42057 32.4993 6.64844 32.9596C6.8763 33.4153 6.99023 33.903 6.99023 34.4225H5.73242C5.73242 34.0488 5.6709 33.7184 5.54785 33.4313C5.42936 33.1396 5.24251 32.9117 4.9873 32.7477C4.73665 32.5791 4.40853 32.4948 4.00293 32.4948C3.63835 32.4948 3.33757 32.5654 3.10059 32.7067C2.86816 32.8479 2.69499 33.0393 2.58105 33.2809C2.47168 33.5224 2.41699 33.7981 2.41699 34.108C2.41699 34.3177 2.45345 34.5091 2.52637 34.6823C2.59928 34.8509 2.71094 35.0081 2.86133 35.1539C3.01628 35.2998 3.20768 35.4342 3.43555 35.5573C3.66797 35.6803 3.94141 35.7988 4.25586 35.9127C4.74349 36.0722 5.16048 36.25 5.50684 36.4459C5.85319 36.6419 6.13574 36.8629 6.35449 37.109C6.57324 37.3505 6.73275 37.6263 6.83301 37.9362C6.93783 38.2415 6.99023 38.5878 6.99023 38.9752C6.99023 39.3808 6.92188 39.7477 6.78516 40.0758C6.65299 40.4039 6.45931 40.6842 6.2041 40.9166C5.94889 41.149 5.64128 41.3291 5.28125 41.4567C4.92122 41.5797 4.51562 41.6412 4.06445 41.6412C3.67253 41.6412 3.28743 41.5774 2.90918 41.4498C2.53548 41.3222 2.19596 41.1308 1.89062 40.8756C1.58529 40.6204 1.34147 40.3059 1.15918 39.9323C0.976888 39.554 0.885742 39.1165 0.885742 38.6198H2.14355C2.14355 38.9615 2.19368 39.2555 2.29395 39.5016C2.39421 39.7431 2.5332 39.9436 2.71094 40.1031C2.88867 40.2627 3.09147 40.3811 3.31934 40.4586C3.55176 40.5315 3.80013 40.568 4.06445 40.568C4.42904 40.568 4.73438 40.5042 4.98047 40.3766C5.23112 40.249 5.41797 40.0667 5.54102 39.8297C5.66862 39.5927 5.73242 39.3125 5.73242 38.9889ZM11.1191 41.6412C10.6771 41.6412 10.2783 41.5752 9.92285 41.443C9.56738 41.3108 9.26432 41.1103 9.01367 40.8414C8.76302 40.568 8.57161 40.2239 8.43945 39.8092C8.30729 39.3945 8.24121 38.9046 8.24121 38.3395V37.5055C8.24121 36.8538 8.31641 36.3024 8.4668 35.8512C8.62174 35.4 8.8291 35.0377 9.08887 34.7643C9.34863 34.4863 9.64258 34.2858 9.9707 34.1627C10.2988 34.0351 10.6361 33.9713 10.9824 33.9713C11.4473 33.9713 11.8438 34.0465 12.1719 34.1969C12.5 34.3473 12.7666 34.5706 12.9717 34.8668C13.1768 35.163 13.3271 35.5276 13.4229 35.9606C13.5231 36.3935 13.5732 36.8925 13.5732 37.4576V38.1617H8.95215V37.1295H12.3633V36.9586C12.3451 36.5758 12.2926 36.2386 12.2061 35.9469C12.124 35.6552 11.9873 35.4274 11.7959 35.2633C11.6045 35.0947 11.3333 35.0104 10.9824 35.0104C10.7591 35.0104 10.5518 35.0491 10.3604 35.1266C10.1735 35.1995 10.0117 35.3294 9.875 35.5162C9.74284 35.6985 9.63802 35.9515 9.56055 36.275C9.48763 36.5986 9.45117 37.0087 9.45117 37.5055V38.3395C9.45117 38.736 9.48763 39.0778 9.56055 39.3649C9.63802 39.6474 9.74967 39.8821 9.89551 40.069C10.0459 40.2513 10.2282 40.388 10.4424 40.4791C10.6611 40.5657 10.9095 40.609 11.1875 40.609C11.5931 40.609 11.9281 40.5315 12.1924 40.3766C12.4567 40.2171 12.6868 40.0143 12.8828 39.7682L13.5186 40.527C13.3864 40.7138 13.2132 40.8938 12.999 41.067C12.7894 41.2356 12.5296 41.3746 12.2197 41.484C11.9144 41.5888 11.5475 41.6412 11.1191 41.6412ZM17.7363 34.108V35.0787H14.2842V34.108H17.7363ZM15.4121 32.3102H16.6221V39.6725C16.6221 39.9231 16.6517 40.1123 16.7109 40.2399C16.7747 40.3675 16.8545 40.4518 16.9502 40.4928C17.0459 40.5338 17.1484 40.5543 17.2578 40.5543C17.3398 40.5543 17.431 40.5452 17.5312 40.527C17.6315 40.5042 17.6999 40.486 17.7363 40.4723L17.7295 41.5045C17.6475 41.5364 17.5381 41.566 17.4014 41.5934C17.2646 41.6253 17.0915 41.6412 16.8818 41.6412C16.6221 41.6412 16.3805 41.5797 16.1572 41.4567C15.9339 41.3336 15.7539 41.1285 15.6172 40.8414C15.4805 40.5498 15.4121 40.1578 15.4121 39.6656V32.3102ZM21.8789 34.108V35.0787H18.4268V34.108H21.8789ZM19.5547 32.3102H20.7646V39.6725C20.7646 39.9231 20.7943 40.1123 20.8535 40.2399C20.9173 40.3675 20.9971 40.4518 21.0928 40.4928C21.1885 40.5338 21.291 40.5543 21.4004 40.5543C21.4824 40.5543 21.5736 40.5452 21.6738 40.527C21.7741 40.5042 21.8424 40.486 21.8789 40.4723L21.8721 41.5045C21.79 41.5364 21.6807 41.566 21.5439 41.5934C21.4072 41.6253 21.234 41.6412 21.0244 41.6412C20.7646 41.6412 20.5231 41.5797 20.2998 41.4567C20.0765 41.3336 19.8965 41.1285 19.7598 40.8414C19.623 40.5498 19.5547 40.1578 19.5547 39.6656V32.3102ZM24.6201 34.108V41.5045H23.417V34.108H24.6201ZM23.3486 32.1461C23.3486 31.941 23.4056 31.7679 23.5195 31.6266C23.6335 31.4853 23.8044 31.4147 24.0322 31.4147C24.2601 31.4147 24.431 31.4853 24.5449 31.6266C24.6634 31.7679 24.7227 31.941 24.7227 32.1461C24.7227 32.3421 24.6634 32.5107 24.5449 32.652C24.431 32.7887 24.2601 32.8571 24.0322 32.8571C23.8044 32.8571 23.6335 32.7887 23.5195 32.652C23.4056 32.5107 23.3486 32.3421 23.3486 32.1461ZM27.7441 35.6871V41.5045H26.5342V34.108H27.6758L27.7441 35.6871ZM27.4502 37.526L26.958 37.5055C26.9535 36.9996 27.0104 36.5325 27.1289 36.1041C27.252 35.6712 27.4251 35.2952 27.6484 34.9762C27.8763 34.6572 28.1475 34.4111 28.4619 34.2379C28.7764 34.0602 29.125 33.9713 29.5078 33.9713C29.8086 33.9713 30.082 34.0214 30.3281 34.1217C30.5742 34.2174 30.7839 34.3724 30.957 34.5865C31.1302 34.8007 31.2624 35.0787 31.3535 35.4205C31.4492 35.7578 31.4971 36.1702 31.4971 36.6578V41.5045H30.2871V36.6442C30.2871 36.2568 30.2438 35.9469 30.1572 35.7145C30.0752 35.4775 29.9476 35.3066 29.7744 35.2018C29.6058 35.0924 29.3916 35.0377 29.1318 35.0377C28.8949 35.0377 28.6738 35.1038 28.4688 35.236C28.2637 35.3681 28.0837 35.5504 27.9287 35.7828C27.7783 36.0153 27.6598 36.2819 27.5732 36.5826C27.4912 36.8789 27.4502 37.1933 27.4502 37.526ZM37.3213 34.108H38.4082V41.566C38.4082 42.2177 38.2943 42.7555 38.0664 43.1793C37.8431 43.6031 37.5309 43.9153 37.1299 44.1158C36.7288 44.3209 36.2663 44.4235 35.7422 44.4235C35.5553 44.4235 35.3206 44.3893 35.0381 44.3209C34.7555 44.2526 34.473 44.1477 34.1904 44.0065C33.9079 43.8698 33.6755 43.6966 33.4932 43.4869L33.9922 42.6461C34.252 42.9104 34.5277 43.0996 34.8193 43.2135C35.111 43.3274 35.389 43.3844 35.6533 43.3844C35.9678 43.3844 36.2412 43.3274 36.4736 43.2135C36.7061 43.0996 36.8861 42.9127 37.0137 42.653C37.1413 42.3977 37.2051 42.0559 37.2051 41.6276V35.735L37.3213 34.108ZM33.0693 38.1617V37.4713C33.0693 36.8606 33.1263 36.3365 33.2402 35.899C33.3542 35.457 33.5182 35.0947 33.7324 34.8121C33.9512 34.525 34.2132 34.3131 34.5186 34.1764C34.8239 34.0397 35.1657 33.9713 35.5439 33.9713C35.9268 33.9713 36.2572 34.0488 36.5352 34.2037C36.8132 34.3587 37.0433 34.5843 37.2256 34.8805C37.4124 35.1722 37.5583 35.5276 37.6631 35.9469C37.7725 36.3616 37.8477 36.831 37.8887 37.3551V38.278C37.8477 38.7975 37.7725 39.2646 37.6631 39.6793C37.5583 40.094 37.4102 40.4472 37.2188 40.7389C37.0319 41.0306 36.7995 41.2539 36.5215 41.4088C36.2435 41.5638 35.9131 41.6412 35.5303 41.6412C35.1566 41.6412 34.8193 41.5706 34.5186 41.4293C34.2178 41.2835 33.958 41.067 33.7393 40.7799C33.5251 40.4882 33.3587 40.1259 33.2402 39.693C33.1263 39.2555 33.0693 38.7451 33.0693 38.1617ZM34.2793 37.4713V38.1617C34.2793 38.5719 34.3089 38.9296 34.3682 39.235C34.4274 39.5358 34.5186 39.7864 34.6416 39.9869C34.7692 40.1829 34.931 40.3287 35.127 40.4244C35.3275 40.5201 35.5667 40.568 35.8447 40.568C36.182 40.568 36.4577 40.486 36.6719 40.3219C36.8861 40.1578 37.057 39.9414 37.1846 39.6725C37.3167 39.399 37.4215 39.1051 37.499 38.7906V36.8492C37.4535 36.6168 37.3874 36.3935 37.3008 36.1793C37.2188 35.9606 37.1117 35.7669 36.9795 35.5983C36.8473 35.4251 36.6878 35.2884 36.501 35.1881C36.3187 35.0878 36.1045 35.0377 35.8584 35.0377C35.5804 35.0377 35.3411 35.0878 35.1406 35.1881C34.9401 35.2884 34.776 35.4388 34.6484 35.6393C34.5208 35.8398 34.4274 36.0927 34.3682 36.3981C34.3089 36.7034 34.2793 37.0612 34.2793 37.4713ZM43.8086 39.611C43.8086 39.4241 43.763 39.2601 43.6719 39.1188C43.5807 38.9775 43.4303 38.8408 43.2207 38.7086C43.0156 38.5765 42.7376 38.4352 42.3867 38.2848C42.0449 38.1435 41.7373 38.0045 41.4639 37.8678C41.195 37.7265 40.9671 37.5739 40.7803 37.4098C40.5934 37.2457 40.4499 37.0566 40.3496 36.8424C40.2539 36.6237 40.2061 36.3662 40.2061 36.0699C40.2061 35.7737 40.2607 35.5003 40.3701 35.2496C40.484 34.9944 40.6436 34.7711 40.8486 34.5797C41.0537 34.3883 41.2998 34.2402 41.5869 34.1354C41.874 34.026 42.1953 33.9713 42.5508 33.9713C43.0566 33.9713 43.4873 34.0693 43.8428 34.2653C44.1982 34.4612 44.4694 34.7301 44.6562 35.0719C44.8477 35.4091 44.9434 35.7897 44.9434 36.2135H43.7402C43.7402 36.0084 43.6947 35.8147 43.6035 35.6324C43.5124 35.4502 43.3779 35.302 43.2002 35.1881C43.0225 35.0696 42.806 35.0104 42.5508 35.0104C42.2819 35.0104 42.0632 35.0582 41.8945 35.1539C41.7259 35.2496 41.6029 35.375 41.5254 35.5299C41.4525 35.6803 41.416 35.8466 41.416 36.0289C41.416 36.1656 41.4342 36.2841 41.4707 36.3844C41.5117 36.4801 41.5801 36.5712 41.6758 36.6578C41.7715 36.7399 41.9014 36.8265 42.0654 36.9176C42.234 37.0042 42.4482 37.1045 42.708 37.2184C43.2093 37.4143 43.6309 37.6126 43.9727 37.8131C44.3145 38.0136 44.5742 38.2483 44.752 38.5172C44.9297 38.7861 45.0186 39.1188 45.0186 39.5153C45.0186 39.8388 44.9593 40.1328 44.8408 40.3971C44.7269 40.6569 44.5628 40.8802 44.3486 41.067C44.1344 41.2539 43.877 41.3974 43.5762 41.4977C43.2799 41.5934 42.9473 41.6412 42.5781 41.6412C42.0221 41.6412 41.5505 41.5319 41.1631 41.3131C40.7803 41.0898 40.4886 40.8004 40.2881 40.4449C40.0921 40.0849 39.9941 39.6998 39.9941 39.2897H41.2041C41.2178 39.636 41.2952 39.9049 41.4365 40.0963C41.5824 40.2877 41.7578 40.4199 41.9629 40.4928C42.168 40.5657 42.373 40.6022 42.5781 40.6022C42.847 40.6022 43.0726 40.5634 43.2549 40.486C43.4372 40.4039 43.5739 40.2877 43.665 40.1373C43.7607 39.9869 43.8086 39.8115 43.8086 39.611Z" fill="white"/>
<path d="M29.7034 8.6553L29.4199 9.15387C29.3162 9.33865 29.095 9.41536 28.8979 9.34214C28.49 9.18874 28.1167 8.96909 27.7882 8.69365C27.6292 8.56116 27.5877 8.32757 27.6914 8.14627L27.9749 7.6477C27.7364 7.36878 27.5497 7.04454 27.4253 6.6924H26.8549C26.6474 6.6924 26.4677 6.54248 26.4331 6.33329C26.364 5.91491 26.3605 5.47561 26.4331 5.0398C26.4677 4.83061 26.6474 4.6772 26.8549 4.6772H27.4253C27.5497 4.32507 27.7364 4.00082 27.9749 3.7219L27.6914 3.22333C27.5877 3.04203 27.6258 2.80844 27.7882 2.67595C28.1167 2.40052 28.4935 2.18087 28.8979 2.02746C29.095 1.95424 29.3162 2.03095 29.4199 2.21573L29.7034 2.7143C30.0664 2.64806 30.4363 2.64806 30.7992 2.7143L31.0827 2.21573C31.1864 2.03095 31.4077 1.95424 31.6047 2.02746C32.0126 2.18087 32.386 2.40052 32.7144 2.67595C32.8734 2.80844 32.9149 3.04203 32.8112 3.22333L32.5277 3.7219C32.7663 4.00082 32.9529 4.32507 33.0774 4.6772H33.6478C33.8552 4.6772 34.035 4.82712 34.0695 5.03631C34.1387 5.45469 34.1421 5.89399 34.0695 6.3298C34.035 6.53899 33.8552 6.6924 33.6478 6.6924H33.0774C32.9529 7.04454 32.7663 7.36878 32.5277 7.6477L32.8112 8.14627C32.9149 8.32757 32.8769 8.56116 32.7144 8.69365C32.386 8.96909 32.0092 9.18874 31.6047 9.34214C31.4077 9.41536 31.1864 9.33865 31.0827 9.15387L30.7992 8.6553C30.4397 8.72154 30.0664 8.72154 29.7034 8.6553ZM29.3404 6.60524C30.6713 7.63724 32.1889 6.10667 31.1657 4.76436C29.8348 3.72887 28.3172 5.26293 29.3404 6.60524ZM25.3545 11.971L26.5195 12.5567C26.8687 12.7589 27.0208 13.1878 26.8825 13.5713C26.5748 14.415 25.9699 15.189 25.4099 15.8654C25.154 16.1757 24.7115 16.2524 24.3624 16.0502L23.3564 15.4644C22.8033 15.9421 22.1603 16.3221 21.4586 16.5697V17.7411C21.4586 18.1456 21.1716 18.4942 20.7775 18.5639C19.9271 18.7104 19.0352 18.7173 18.1537 18.5639C17.7562 18.4942 17.4623 18.149 17.4623 17.7411V16.5697C16.7606 16.3186 16.1176 15.9421 15.5644 15.4644L14.5585 16.0467C14.2128 16.2489 13.7668 16.1722 13.511 15.8619C12.951 15.1855 12.3598 14.4115 12.0522 13.5713C11.9139 13.1912 12.066 12.7624 12.4152 12.5567L13.5663 11.971C13.4315 11.2423 13.4315 10.4927 13.5663 9.76052L12.4152 9.1713C12.066 8.96909 11.9104 8.54025 12.0522 8.16022C12.3598 7.31648 12.951 6.54248 13.511 5.8661C13.7668 5.5558 14.2093 5.4791 14.5585 5.68131L15.5644 6.26705C16.1176 5.7894 16.7606 5.40937 17.4623 5.16183V3.98687C17.4623 3.58593 17.7458 3.23728 18.1399 3.16755C18.9903 3.02111 19.8856 3.01414 20.7672 3.16406C21.1647 3.23379 21.4586 3.57895 21.4586 3.98687V5.15834C22.1603 5.40937 22.8033 5.78591 23.3564 6.26356L24.3624 5.67783C24.7081 5.47561 25.154 5.55231 25.4099 5.86261C25.9699 6.53899 26.5576 7.313 26.8652 8.15673C27.0035 8.53676 26.8687 8.9656 26.5195 9.1713L25.3545 9.75704C25.4894 10.4892 25.4894 11.2388 25.3545 11.971ZM21.2892 12.7066C23.3357 10.022 20.297 6.95737 17.6352 9.02138C15.5886 11.706 18.6273 14.7706 21.2892 12.7066ZM29.7034 19.0765L29.4199 19.575C29.3162 19.7598 29.095 19.8365 28.8979 19.7633C28.49 19.6099 28.1167 19.3902 27.7882 19.1148C27.6292 18.9823 27.5877 18.7487 27.6914 18.5674L27.9749 18.0689C27.7364 17.7899 27.5497 17.4657 27.4253 17.1136H26.8549C26.6474 17.1136 26.4677 16.9636 26.4331 16.7544C26.364 16.3361 26.3605 15.8968 26.4331 15.461C26.4677 15.2518 26.6474 15.0984 26.8549 15.0984H27.4253C27.5497 14.7462 27.7364 14.422 27.9749 14.1431L27.6914 13.6445C27.5877 13.4632 27.6258 13.2296 27.7882 13.0971C28.1167 12.8217 28.4935 12.602 28.8979 12.4486C29.095 12.3754 29.3162 12.4521 29.4199 12.6369L29.7034 13.1355C30.0664 13.0692 30.4363 13.0692 30.7992 13.1355L31.0827 12.6369C31.1864 12.4521 31.4077 12.3754 31.6047 12.4486C32.0126 12.602 32.386 12.8217 32.7144 13.0971C32.8734 13.2296 32.9149 13.4632 32.8112 13.6445L32.5277 14.1431C32.7663 14.422 32.9529 14.7462 33.0774 15.0984H33.6478C33.8552 15.0984 34.035 15.2483 34.0695 15.4575C34.1387 15.8758 34.1421 16.3151 34.0695 16.751C34.035 16.9601 33.8552 17.1136 33.6478 17.1136H33.0774C32.9529 17.4657 32.7663 17.7899 32.5277 18.0689L32.8112 18.5674C32.9149 18.7487 32.8769 18.9823 32.7144 19.1148C32.386 19.3902 32.0092 19.6099 31.6047 19.7633C31.4077 19.8365 31.1864 19.7598 31.0827 19.575L30.7992 19.0765C30.4397 19.1427 30.0664 19.1427 29.7034 19.0765ZM29.3404 17.0229C30.6713 18.0549 32.1889 16.5243 31.1657 15.182C29.8348 14.15 28.3172 15.6806 29.3404 17.0229Z" fill="white"/>
</svg>
