<svg width="44" height="44" viewBox="0 0 44 44" fill="none" xmlns="http://www.w3.org/2000/svg">
<path d="M12.0264 30.2706H13.2842V37.2775C13.2842 38.0249 13.1406 38.6241 12.8535 39.0753C12.5664 39.5265 12.1882 39.8546 11.7188 40.0597C11.2539 40.2602 10.7526 40.3605 10.2148 40.3605C9.64062 40.3605 9.12337 40.2602 8.66309 40.0597C8.2028 39.8546 7.83594 39.5265 7.5625 39.0753C7.29362 38.6241 7.15918 38.0249 7.15918 37.2775V30.2706H8.41016V37.2775C8.41016 37.797 8.48307 38.2026 8.62891 38.4943C8.7793 38.7859 8.98893 38.991 9.25781 39.1095C9.53125 39.228 9.85026 39.2872 10.2148 39.2872C10.584 39.2872 10.903 39.228 11.1719 39.1095C11.4453 38.991 11.6549 38.7859 11.8008 38.4943C11.9512 38.2026 12.0264 37.797 12.0264 37.2775V30.2706ZM18.6299 38.3302C18.6299 38.1434 18.5843 37.9793 18.4932 37.838C18.402 37.6967 18.2516 37.56 18.042 37.4279C17.8369 37.2957 17.5589 37.1544 17.208 37.004C16.8662 36.8628 16.5586 36.7238 16.2852 36.587C16.0163 36.4458 15.7884 36.2931 15.6016 36.129C15.4147 35.965 15.2712 35.7758 15.1709 35.5616C15.0752 35.3429 15.0273 35.0854 15.0273 34.7892C15.0273 34.493 15.082 34.2195 15.1914 33.9689C15.3053 33.7137 15.4648 33.4904 15.6699 33.299C15.875 33.1075 16.1211 32.9594 16.4082 32.8546C16.6953 32.7452 17.0166 32.6906 17.3721 32.6906C17.8779 32.6906 18.3086 32.7885 18.6641 32.9845C19.0195 33.1805 19.2907 33.4493 19.4775 33.7911C19.6689 34.1284 19.7646 34.5089 19.7646 34.9327H18.5615C18.5615 34.7277 18.516 34.534 18.4248 34.3517C18.3337 34.1694 18.1992 34.0213 18.0215 33.9073C17.8438 33.7889 17.6273 33.7296 17.3721 33.7296C17.1032 33.7296 16.8844 33.7775 16.7158 33.8732C16.5472 33.9689 16.4242 34.0942 16.3467 34.2491C16.2738 34.3995 16.2373 34.5659 16.2373 34.7482C16.2373 34.8849 16.2555 35.0034 16.292 35.1036C16.333 35.1993 16.4014 35.2905 16.4971 35.3771C16.5928 35.4591 16.7227 35.5457 16.8867 35.6368C17.0553 35.7234 17.2695 35.8237 17.5293 35.9376C18.0306 36.1336 18.4521 36.3318 18.7939 36.5323C19.1357 36.7329 19.3955 36.9676 19.5732 37.2365C19.751 37.5053 19.8398 37.838 19.8398 38.2345C19.8398 38.5581 19.7806 38.852 19.6621 39.1163C19.5482 39.3761 19.3841 39.5994 19.1699 39.7863C18.9557 39.9731 18.6982 40.1167 18.3975 40.2169C18.1012 40.3126 17.7686 40.3605 17.3994 40.3605C16.8434 40.3605 16.3717 40.2511 15.9844 40.0323C15.6016 39.809 15.3099 39.5197 15.1094 39.1642C14.9134 38.8042 14.8154 38.4191 14.8154 38.0089H16.0254C16.0391 38.3553 16.1165 38.6241 16.2578 38.8156C16.4036 39.007 16.5791 39.1391 16.7842 39.212C16.9893 39.285 17.1943 39.3214 17.3994 39.3214C17.6683 39.3214 17.8939 39.2827 18.0762 39.2052C18.2585 39.1232 18.3952 39.007 18.4863 38.8566C18.582 38.7062 18.6299 38.5307 18.6299 38.3302ZM24.0713 40.3605C23.6292 40.3605 23.2305 40.2944 22.875 40.1622C22.5195 40.0301 22.2165 39.8295 21.9658 39.5607C21.7152 39.2872 21.5238 38.9432 21.3916 38.5284C21.2594 38.1137 21.1934 37.6238 21.1934 37.0587V36.2247C21.1934 35.573 21.2686 35.0216 21.4189 34.5704C21.5739 34.1193 21.7812 33.757 22.041 33.4835C22.3008 33.2055 22.5947 33.005 22.9229 32.882C23.251 32.7544 23.5882 32.6906 23.9346 32.6906C24.3994 32.6906 24.7959 32.7657 25.124 32.9161C25.4521 33.0665 25.7188 33.2898 25.9238 33.5861C26.1289 33.8823 26.2793 34.2469 26.375 34.6798C26.4753 35.1128 26.5254 35.6118 26.5254 36.1769V36.881H21.9043V35.8488H25.3154V35.6779C25.2972 35.295 25.2448 34.9578 25.1582 34.6661C25.0762 34.3745 24.9395 34.1466 24.748 33.9825C24.5566 33.8139 24.2855 33.7296 23.9346 33.7296C23.7113 33.7296 23.5039 33.7684 23.3125 33.8458C23.1257 33.9187 22.9639 34.0486 22.8271 34.2355C22.695 34.4178 22.5902 34.6707 22.5127 34.9943C22.4398 35.3178 22.4033 35.728 22.4033 36.2247V37.0587C22.4033 37.4552 22.4398 37.797 22.5127 38.0841C22.5902 38.3667 22.7018 38.6014 22.8477 38.7882C22.998 38.9705 23.1803 39.1072 23.3945 39.1984C23.6133 39.285 23.8617 39.3282 24.1396 39.3282C24.5452 39.3282 24.8802 39.2508 25.1445 39.0958C25.4089 38.9363 25.639 38.7335 25.835 38.4874L26.4707 39.2462C26.3385 39.4331 26.1654 39.6131 25.9512 39.7863C25.7415 39.9549 25.4818 40.0939 25.1719 40.2032C24.8665 40.3081 24.4997 40.3605 24.0713 40.3605ZM29.1982 33.9894V40.2238H27.9883V32.8273H29.1572L29.1982 33.9894ZM31.0371 32.7863L31.0439 33.962C30.9437 33.9392 30.8525 33.9256 30.7705 33.921C30.693 33.9119 30.6019 33.9073 30.4971 33.9073C30.2692 33.9073 30.0687 33.9529 29.8955 34.0441C29.7269 34.1352 29.5811 34.2628 29.458 34.4269C29.335 34.5909 29.237 34.7869 29.1641 35.0148C29.0911 35.2381 29.041 35.4842 29.0137 35.7531L28.6992 35.9581C28.6992 35.5115 28.7334 35.0922 28.8018 34.7003C28.8747 34.3084 28.9863 33.962 29.1367 33.6613C29.2871 33.3559 29.4785 33.1189 29.7109 32.9503C29.9479 32.7771 30.2305 32.6906 30.5586 32.6906C30.6315 32.6906 30.7204 32.7019 30.8252 32.7247C30.9346 32.743 31.0052 32.7635 31.0371 32.7863ZM35.8428 38.3302C35.8428 38.1434 35.7972 37.9793 35.7061 37.838C35.6149 37.6967 35.4645 37.56 35.2549 37.4279C35.0498 37.2957 34.7718 37.1544 34.4209 37.004C34.0791 36.8628 33.7715 36.7238 33.498 36.587C33.2292 36.4458 33.0013 36.2931 32.8145 36.129C32.6276 35.965 32.484 35.7758 32.3838 35.5616C32.2881 35.3429 32.2402 35.0854 32.2402 34.7892C32.2402 34.493 32.2949 34.2195 32.4043 33.9689C32.5182 33.7137 32.6777 33.4904 32.8828 33.299C33.0879 33.1075 33.334 32.9594 33.6211 32.8546C33.9082 32.7452 34.2295 32.6906 34.585 32.6906C35.0908 32.6906 35.5215 32.7885 35.877 32.9845C36.2324 33.1805 36.5036 33.4493 36.6904 33.7911C36.8818 34.1284 36.9775 34.5089 36.9775 34.9327H35.7744C35.7744 34.7277 35.7288 34.534 35.6377 34.3517C35.5465 34.1694 35.4121 34.0213 35.2344 33.9073C35.0566 33.7889 34.8402 33.7296 34.585 33.7296C34.3161 33.7296 34.0973 33.7775 33.9287 33.8732C33.7601 33.9689 33.637 34.0942 33.5596 34.2491C33.4867 34.3995 33.4502 34.5659 33.4502 34.7482C33.4502 34.8849 33.4684 35.0034 33.5049 35.1036C33.5459 35.1993 33.6143 35.2905 33.71 35.3771C33.8057 35.4591 33.9355 35.5457 34.0996 35.6368C34.2682 35.7234 34.4824 35.8237 34.7422 35.9376C35.2435 36.1336 35.665 36.3318 36.0068 36.5323C36.3486 36.7329 36.6084 36.9676 36.7861 37.2365C36.9639 37.5053 37.0527 37.838 37.0527 38.2345C37.0527 38.5581 36.9935 38.852 36.875 39.1163C36.7611 39.3761 36.597 39.5994 36.3828 39.7863C36.1686 39.9731 35.9111 40.1167 35.6104 40.2169C35.3141 40.3126 34.9814 40.3605 34.6123 40.3605C34.0563 40.3605 33.5846 40.2511 33.1973 40.0323C32.8145 39.809 32.5228 39.5197 32.3223 39.1642C32.1263 38.8042 32.0283 38.4191 32.0283 38.0089H33.2383C33.252 38.3553 33.3294 38.6241 33.4707 38.8156C33.6165 39.007 33.792 39.1391 33.9971 39.212C34.2021 39.285 34.4072 39.3214 34.6123 39.3214C34.8812 39.3214 35.1068 39.2827 35.2891 39.2052C35.4714 39.1232 35.6081 39.007 35.6992 38.8566C35.7949 38.7062 35.8428 38.5307 35.8428 38.3302Z" fill="#FFBF47"/>
<path d="M21.875 10.145C24.3605 10.145 26.375 8.09809 26.375 5.5725C26.375 3.04691 24.3605 1 21.875 1C19.3895 1 17.375 3.04691 17.375 5.5725C17.375 8.09809 19.3895 10.145 21.875 10.145ZM25.243 11.3096L23.5625 18.1469L22.4375 13.2886L23.5625 11.2881H20.1875L21.3125 13.2886L20.1875 18.1469L18.507 11.3096C16.0004 11.431 14 13.5136 14 16.0893V17.5753C14 18.522 14.7559 19.29 15.6875 19.29H28.0625C28.9941 19.29 29.75 18.522 29.75 17.5753V16.0893C29.75 13.5136 27.7496 11.431 25.243 11.3096Z" fill="#FFBF47"/>
</svg>
